<?xml version="1.0" encoding="UTF-8" standalone="no"?>
<!-- Created with Inkscape (http://www.inkscape.org/) -->

<svg
   xmlns:dc="http://purl.org/dc/elements/1.1/"
   xmlns:cc="http://creativecommons.org/ns#"
   xmlns:rdf="http://www.w3.org/1999/02/22-rdf-syntax-ns#"
   xmlns:svg="http://www.w3.org/2000/svg"
   xmlns="http://www.w3.org/2000/svg"
   version="1.1"
   width="892.91339"
   height="345.47244"
   id="svg7813">
  <defs
     id="defs7815">
    <clipPath
       id="clipPath5801">
      <path
         d="M 0,612 1008,612 1008,0 0,0 0,612 z"
         id="path5803" />
    </clipPath>
  </defs>
  <metadata
     id="metadata7818">
    <rdf:RDF>
      <cc:Work
         rdf:about="">
        <dc:format>image/svg+xml</dc:format>
        <dc:type
           rdf:resource="http://purl.org/dc/dcmitype/StillImage" />
        <dc:title></dc:title>
      </cc:Work>
    </rdf:RDF>
  </metadata>
  <g
     transform="translate(50.565495,-328.03961)"
     id="layer1">
    <g
       transform="matrix(5.140195,0,0,-5.140195,-4069.2181,1963.6322)"
       id="g5797">
      <g
         clip-path="url(#clipPath5801)"
         id="g5799">
        <g
           transform="translate(928.7324,285.8037)"
           id="g5805">
          <path
             d="m 0,0 0,-9.681 0.022,-0.367 -0.37,0.024 -4.696,0 -0.371,-0.024 0.021,0.367 0,8.828 c 0,2.575 -1.48,3.805 -3.308,3.805 -1.828,0 -3.311,-1.23 -3.311,-3.805 l 0,-8.828 0.024,-0.367 -0.371,0.024 -4.698,0 -0.37,-0.024 0.023,0.367 0,8.828 c 0,4.807 3.896,8.704 8.703,8.704 2.045,0 3.921,-0.709 5.407,-1.889 l 0.106,-0.32 0.104,0.31 c 0.152,0.165 0.309,0.324 0.473,0.477 l 0.32,0.072 -0.295,0.137 c -1.285,1.431 -2.07,3.318 -2.07,5.392 l 0,19.311 -0.023,0.367 0.37,-0.023 4.698,0 0.371,0.023 -0.024,-0.367 0,-19.311 c 0,-2.093 1.207,-3.095 2.694,-3.095 1.486,0 2.693,1.002 2.693,3.095 l 0,19.311 -0.022,0.367 0.37,-0.023 4.696,0 0.372,0.023 -0.023,-0.367 0,-19.311 c 0,-2.074 -0.786,-3.961 -2.071,-5.392 L 9.149,6.501 9.47,6.429 C 9.633,6.276 9.791,6.117 9.943,5.952 l 0.105,-0.31 0.103,0.32 c 1.487,1.18 3.364,1.889 5.409,1.889 4.806,0 8.703,-3.897 8.703,-8.704 l 0,-8.828 0.023,-0.367 -0.372,0.024 -4.696,0 -0.371,-0.024 0.022,0.367 0,8.828 c 0,2.575 -1.481,3.805 -3.309,3.805 -1.829,0 -3.31,-1.23 -3.31,-3.805 l 0,-8.828 0.023,-0.367 -0.372,0.024 -4.695,0 -0.371,-0.024 0.021,0.367 0,9.681 C 6.856,2.667 5.323,3.94 3.429,3.94 1.535,3.94 0,2.667 0,0"
             id="path5807"
             style="fill:#1959a6;fill-opacity:1;fill-rule:nonzero;stroke:none" />
        </g>
        <g
           transform="translate(822.8799,251.9473)"
           id="g5809">
          <path
             d="m 0,0 4.97,0 0,0.521 -1.839,0.439 0,16.913 -5.107,0 0,-0.578 L 0,16.744 0,11.033 c -0.873,0.725 -2.18,1.321 -3.926,1.321 -3.103,0 -5.39,-2.719 -5.39,-6.506 0,-3.875 2.095,-6.123 5.418,-6.123 1.616,0 2.964,0.625 3.898,1.481 L 0,0 z M 0,2.298 C -0.689,1.759 -1.537,1.289 -2.828,1.289 c -1.701,0 -3.157,1.236 -3.157,4.586 0,3.453 1.19,5.051 3.13,5.051 1.308,0 2.228,-0.465 2.855,-1.17 L 0,2.298 z"
             id="path5811"
             style="fill:#231f20;fill-opacity:1;fill-rule:nonzero;stroke:none" />
        </g>
        <g
           transform="translate(869.6113,269.8203)"
           id="g5813">
          <path
             d="m 0,0 0,-0.549 -1.866,-0.494 0,-15.787 1.866,-0.494 0,-0.549 -7.761,0 0,0.576 2.489,0.467 0,12.575 -5.801,-13.618 -1.346,0 -5.702,13.674 0,-12.631 2.4,-0.412 0,-0.631 -5.614,0 0,0.549 1.593,0.467 0,15.843 -1.593,0.465 0,0.549 5.002,0 5.554,-13.682 L -5.069,0 0,0 z"
             id="path5815"
             style="fill:#231f20;fill-opacity:1;fill-rule:nonzero;stroke:none" />
        </g>
        <g
           transform="translate(877.4111,264.3027)"
           id="g5817">
          <path
             d="m 0,0 c -3.515,0 -6.672,-2.444 -6.672,-6.315 0,-3.761 3.186,-6.314 6.672,-6.314 3.515,0 6.699,2.553 6.699,6.314 C 6.699,-2.444 3.515,0 0,0 m 0,-0.88 c 2.141,0 3.268,-2.388 3.268,-5.407 0,-2.993 -1.127,-5.465 -3.268,-5.465 -2.114,0 -3.268,2.472 -3.268,5.465 0,2.991 1.154,5.407 3.268,5.407"
             id="path5819"
             style="fill:#231f20;fill-opacity:1;fill-rule:nonzero;stroke:none" />
        </g>
        <g
           transform="translate(942.0615,260.5684)"
           id="g5821">
          <path
             d="m 0,0 0,-2.059 -2.773,-0.138 c -2.692,-0.082 -4.367,-1.537 -4.367,-3.541 0,-2.033 1.511,-3.157 3.515,-3.157 1.648,0 2.828,0.795 3.625,1.372 l 0,-1.098 4.551,0 0,0.521 -1.477,0.44 0,8.181 c 0,1.786 -1.18,3.213 -3.844,3.213 -2.717,0 -4.419,-0.769 -5.38,-1.181 l 0,-2.828 1.359,0 0.449,2.351 C -4.03,2.209 -3.188,2.5 -1.84,2.389 -0.222,2.256 -0.028,1.125 0,0 m 0,-6.617 c -0.632,-0.412 -1.182,-0.824 -2.17,-0.824 -1.592,-0.028 -2.031,0.962 -2.031,2.115 0,1.18 0.797,1.976 2.251,2.223 L 0,-2.883 0,-6.617 z"
             id="path5823"
             style="fill:#231f20;fill-opacity:1;fill-rule:nonzero;stroke:none" />
        </g>
        <g
           transform="translate(954.832,252.4688)"
           id="g5825">
          <path
             d="m 0,0 0,-0.521 -6.81,0 0,0.521 1.84,0.439 0,15.868 -1.84,0.466 0,0.579 4.97,0 0,-16.913 L 0,0 z"
             id="path5827"
             style="fill:#231f20;fill-opacity:1;fill-rule:nonzero;stroke:none" />
        </g>
        <g
           transform="translate(797.4307,292.5566)"
           id="g5829">
          <path
             d="m 0,0 -2.663,0.521 0,0.577 6.18,0 0,-0.549 L 1.622,0 l 0,-10.811 c 0,-4.498 -2.452,-6.322 -7.477,-6.322 -5.149,0 -7.237,1.971 -7.237,6.039 l 0,11.176 -1.84,0.467 0,0.549 7.909,0 0,-0.604 -2.692,-0.467 0,-10.956 c 0,-3.315 1.129,-4.942 4.586,-4.942 3.748,0 5.129,1.687 5.129,5.244 L 0,0 z"
             id="path5831"
             style="fill:#231f20;fill-opacity:1;fill-rule:nonzero;stroke:none" />
        </g>
        <g
           transform="translate(808.0674,276.3008)"
           id="g5833">
          <path
             d="m 0,0 0,-0.521 -6.672,0 0,0.521 1.813,0.439 0,10.215 -1.647,0.467 0,0.574 4.777,0 0,-1.865 c 0.549,0.467 2.278,2.004 4.502,2.004 2.307,0 3.488,-1.289 3.488,-3.541 l 0,-7.826 1.757,-0.439 0,-0.549 -6.481,0 0,0.549 1.621,0.411 0,7.497 c 0,1.181 -0.357,2.224 -1.84,2.224 C 0,10.16 -1.345,9.227 -1.729,8.979 l 0,-8.54 L 0,0 z"
             id="path5835"
             style="fill:#231f20;fill-opacity:1;fill-rule:nonzero;stroke:none" />
        </g>
        <g
           transform="translate(822.1436,276.7402)"
           id="g5837">
          <path
             d="m 0,0 1.813,-0.439 0,-0.522 -6.782,0 0,0.522 1.839,0.439 0,10.215 -1.647,0.467 0,0.574 4.777,0 L 0,0 z"
             id="path5839"
             style="fill:#231f20;fill-opacity:1;fill-rule:nonzero;stroke:none" />
        </g>
        <g
           transform="translate(822.3096,292.1992)"
           id="g5841">
          <path
             d="m 0,0 c 0,-0.934 -0.824,-1.702 -1.813,-1.702 -0.96,0 -1.812,0.768 -1.812,1.702 0,0.934 0.852,1.73 1.812,1.73 C -0.824,1.73 0,0.934 0,0"
             id="path5843"
             style="fill:#231f20;fill-opacity:1;fill-rule:nonzero;stroke:none" />
        </g>
        <g
           transform="translate(876.0742,276.7402)"
           id="g5845">
          <path
             d="m 0,0 1.813,-0.439 0,-0.522 -6.783,0 0,0.522 1.84,0.439 0,10.215 -1.646,0.467 0,0.574 4.776,0 L 0,0 z"
             id="path5847"
             style="fill:#231f20;fill-opacity:1;fill-rule:nonzero;stroke:none" />
        </g>
        <g
           transform="translate(876.2393,292.1992)"
           id="g5849">
          <path
             d="m 0,0 c 0,-0.934 -0.824,-1.702 -1.813,-1.702 -0.959,0 -1.811,0.768 -1.811,1.702 0,0.934 0.852,1.73 1.811,1.73 C -0.824,1.73 0,0.934 0,0"
             id="path5851"
             style="fill:#231f20;fill-opacity:1;fill-rule:nonzero;stroke:none" />
        </g>
        <g
           transform="translate(824.9473,287.1465)"
           id="g5853">
          <path
             d="m 0,0 -0.88,0.355 0,0.495 5.932,0 0,-0.495 -1.895,-0.466 2.723,-7.44 2.701,7.494 -1.648,0.412 0,0.495 4.064,0 0,-0.495 -0.988,-0.466 -4.651,-11.448 -1.015,0 L 0,0 z"
             id="path5855"
             style="fill:#231f20;fill-opacity:1;fill-rule:nonzero;stroke:none" />
        </g>
        <g
           transform="translate(839.5596,282.6445)"
           id="g5857">
          <path
             d="M 0,0 8.073,0 C 7.99,3.377 6.233,5.49 2.691,5.49 c -3.486,0 -6.068,-3.019 -6.068,-6.314 0,-3.817 2.499,-6.315 6.096,-6.315 3.075,0 4.668,1.207 5.601,1.895 L 7.799,-4.422 C 7.085,-4.861 5.656,-5.821 3.295,-5.684 0.934,-5.52 -0.247,-3.049 0,0 m 4.998,0.961 -4.859,0 c 0.273,2.086 1.097,3.623 2.552,3.623 1.648,0 2.197,-1.922 2.307,-3.623"
             id="path5859"
             style="fill:#231f20;fill-opacity:1;fill-rule:nonzero;stroke:none" />
        </g>
        <g
           transform="translate(868.6514,287.5039)"
           id="g5861">
          <path
             d="m 0,0 -0.274,-2.993 -1.126,0 -0.276,2.032 c -0.412,0.219 -0.961,0.686 -2.169,0.686 -0.988,0 -1.757,-0.522 -1.757,-1.592 0,-1.264 1.401,-1.758 2.801,-2.389 1.346,-0.576 3.543,-1.4 3.543,-3.568 0,-2.473 -2.033,-4.174 -4.476,-4.174 -2.252,0 -3.571,0.52 -3.954,0.658 l -0.22,3.322 1.153,0.11 0.659,-2.25 c 0.329,-0.248 1.235,-0.963 2.334,-0.934 1.566,0 2.307,0.822 2.307,2.004 0,1.4 -1.95,2.004 -3.24,2.608 -1.208,0.577 -3.076,1.098 -3.076,3.597 0,2.059 1.703,3.514 4.009,3.514 C -1.785,0.631 -0.549,0.164 0,0"
             id="path5863"
             style="fill:#231f20;fill-opacity:1;fill-rule:nonzero;stroke:none" />
        </g>
        <g
           transform="translate(898.6914,292.0332)"
           id="g5865">
          <path
             d="m 0,0 -1.181,1.758 -4.2,-3.295 0.687,-0.988 L 0,0 z"
             id="path5867"
             style="fill:#231f20;fill-opacity:1;fill-rule:nonzero;stroke:none" />
        </g>
        <g
           transform="translate(891.3877,282.6445)"
           id="g5869">
          <path
             d="M 0,0 8.072,0 C 7.99,3.377 6.233,5.49 2.691,5.49 c -3.487,0 -6.068,-3.019 -6.068,-6.314 0,-3.817 2.499,-6.315 6.096,-6.315 3.075,0 4.668,1.207 5.601,1.895 L 7.798,-4.422 C 7.084,-4.861 5.656,-5.821 3.295,-5.684 0.934,-5.52 -0.247,-3.049 0,0 m 4.998,0.961 -4.859,0 c 0.274,2.086 1.097,3.623 2.552,3.623 1.649,0 2.197,-1.922 2.307,-3.623"
             id="path5871"
             style="fill:#231f20;fill-opacity:1;fill-rule:nonzero;stroke:none" />
        </g>
        <g
           transform="translate(857.9658,288.1152)"
           id="g5873">
          <path
             d="m 0,0 c -1.76,0 -3.025,-1.41 -3.74,-3 l -0.057,0 0,2.881 -4.97,0 0,-0.506 1.84,-0.535 0,-10.215 -1.84,-0.439 0,-0.522 7.634,0 0,0.604 -2.664,0.44 0,6.935 c 0.731,1.603 1.806,2.253 2.488,2.253 0.512,0 0.705,-0.105 1.103,-0.445 0.142,-0.114 0.667,-0.265 0.98,-0.123 0.597,0.256 0.761,0.693 0.761,1.336 C 1.535,-0.629 0.854,0 0,0"
             id="path5875"
             style="fill:#231f20;fill-opacity:1;fill-rule:nonzero;stroke:none" />
        </g>
        <g
           transform="translate(892.0146,252.4688)"
           id="g5877">
          <path
             d="m 0,0 0,-0.521 -6.672,0 0,0.521 1.813,0.439 0,10.213 -1.648,0.467 0,0.575 4.777,0 0,-1.865 c 0.55,0.466 2.279,2.005 4.503,2.005 2.307,0 3.487,-1.291 3.487,-3.543 l 0,-7.824 1.758,-0.44 0,-0.548 -6.481,0 0,0.548 1.621,0.412 0,7.497 c 0,1.179 -0.357,2.222 -1.84,2.222 -1.318,0 -2.664,-0.933 -3.048,-1.18 l 0,-8.539 L 0,0 z"
             id="path5879"
             style="fill:#231f20;fill-opacity:1;fill-rule:nonzero;stroke:none" />
        </g>
        <g
           transform="translate(919.4248,264.2822)"
           id="g5881">
          <path
             d="m 0,0 c -1.758,0 -3.024,-1.411 -3.738,-2.999 l -0.057,0 0,2.88 -4.97,0 0,-0.507 1.84,-0.535 0,-10.213 -1.84,-0.439 0,-0.522 7.632,0 0,0.604 -2.662,0.439 0,6.935 c 0.729,1.602 1.805,2.253 2.487,2.253 0.513,0 0.704,-0.104 1.103,-0.446 0.142,-0.113 0.667,-0.265 0.98,-0.122 0.598,0.255 0.762,0.694 0.762,1.336 C 1.537,-0.63 0.854,0 0,0"
             id="path5883"
             style="fill:#231f20;fill-opacity:1;fill-rule:nonzero;stroke:none" />
        </g>
        <g
           transform="translate(887.0557,277.1484)"
           id="g5885">
          <path
             d="m 0,0 c -0.46,-0.307 -0.93,-0.531 -1.625,-0.531 -1.103,0 -1.457,0.806 -1.457,2.615 l 0,7.693 3.13,0.467 0,0.604 -3.13,0 0,5.658 -1.022,0 c -0.207,-3.238 -1.351,-5.362 -4.242,-5.658 l -0.474,0 0,-0.604 2.607,-0.467 0,-7.857 c 0,-2.492 0.606,-3.563 2.939,-3.563 1.68,0 3.029,0.631 3.581,1.153 L 0,0 z"
             id="path5887"
             style="fill:#231f20;fill-opacity:1;fill-rule:nonzero;stroke:none" />
        </g>
        <g
           transform="translate(909.2324,253.3164)"
           id="g5889">
          <path
             d="m 0,0 c -0.46,-0.307 -0.929,-0.531 -1.624,-0.531 -1.104,0 -1.457,0.806 -1.457,2.615 l 0,7.692 3.13,0.466 0,0.605 -3.13,0 0,5.657 -1.023,0 c -0.207,-3.237 -1.35,-5.362 -4.241,-5.657 l -0.474,0 0,-0.605 2.607,-0.466 0,-7.856 c 0,-2.492 0.604,-3.563 2.938,-3.563 1.681,0 3.029,0.631 3.58,1.153 L 0,0 z"
             id="path5891"
             style="fill:#231f20;fill-opacity:1;fill-rule:nonzero;stroke:none" />
        </g>
        <g
           transform="translate(832.1396,258.8105)"
           id="g5893">
          <path
             d="M 0,0 8.072,0 C 7.99,3.377 6.232,5.49 2.691,5.49 c -3.488,0 -6.068,-3.019 -6.068,-6.313 0,-3.818 2.498,-6.316 6.096,-6.316 3.074,0 4.667,1.209 5.6,1.895 L 7.797,-4.42 C 7.084,-4.859 5.656,-5.82 3.295,-5.684 0.934,-5.519 -0.246,-3.048 0,0 m 4.997,0.961 -4.86,0 c 0.275,2.087 1.099,3.623 2.554,3.623 1.647,0 2.196,-1.922 2.306,-3.623"
             id="path5895"
             style="fill:#231f20;fill-opacity:1;fill-rule:nonzero;stroke:none" />
        </g>
        <g
           transform="translate(924.624,258.8105)"
           id="g5897">
          <path
             d="M 0,0 8.072,0 C 7.99,3.377 6.232,5.492 2.69,5.492 c -3.487,0 -6.067,-3.021 -6.067,-6.315 0,-3.816 2.498,-6.314 6.096,-6.314 3.074,0 4.667,1.207 5.6,1.893 L 7.797,-4.42 C 7.084,-4.859 5.656,-5.82 3.295,-5.684 0.934,-5.519 -0.248,-3.047 0,0 M 7.303,9.391 6.123,11.147 1.922,7.852 2.607,6.863 7.303,9.391 z m -2.306,-8.43 -4.86,0 c 0.275,2.087 1.099,3.623 2.553,3.623 1.648,0 2.197,-1.92 2.307,-3.623"
             id="path5899"
             style="fill:#231f20;fill-opacity:1;fill-rule:nonzero;stroke:none" />
        </g>
      </g>
    </g>
  </g>
</svg>
